<svg width="169" height="31" viewBox="0 0 169 31" fill="none" xmlns="http://www.w3.org/2000/svg">
<path d="M119.276 7.17188C122.751 7.17198 125.795 9.46982 126.714 12.8301C127.662 16.1616 126.226 19.7228 123.268 21.5322C120.33 23.2837 116.616 22.8939 114.089 20.6123V16.1836C114.662 18.5172 116.761 20.2402 119.276 20.2402C121.43 20.2401 123.382 18.9476 124.215 16.9375C125.048 14.9558 124.589 12.6574 123.067 11.1064C121.516 9.58437 119.218 9.12526 117.237 9.95801C115.226 10.7909 113.933 12.7436 113.933 14.8975C113.933 15.0162 113.939 15.1342 113.947 15.251V21.4873C113.947 21.5033 113.954 21.5174 113.962 21.5293V29.1074L111.904 30.3477L111.549 14.8975C111.549 10.6182 114.997 7.17188 119.276 7.17188ZM101.56 7.17188C105.839 7.17188 109.286 10.647 109.287 14.8975C109.287 19.1769 105.839 22.6523 101.56 22.6523C97.2807 22.6235 93.8057 19.1768 93.8344 14.8975C93.8347 10.6183 97.2809 7.17201 101.56 7.17188ZM78.9126 1.81836L78.9331 7.2998C78.9162 7.31273 78.9049 7.33249 78.9048 7.35547V15.0898C78.9048 15.1046 78.9098 15.1185 78.9174 15.1299C79.0382 17.9797 81.3739 20.2402 84.2544 20.2402C86.4083 20.2402 88.3618 18.9478 89.1948 16.9375C90.0277 14.9558 89.5675 12.6579 88.0454 11.1357C86.4945 9.58482 84.197 9.12511 82.2153 9.95801C80.5843 10.6337 79.4265 12.0467 79.0473 13.7061V9.19922C80.4701 7.88402 82.3207 7.17189 84.2544 7.17188C87.3849 7.17188 90.1994 9.03877 91.4057 11.9395C92.5833 14.8403 91.9229 18.1723 89.7114 20.3838C87.5 22.5951 84.1683 23.2559 81.2964 22.0498C78.3956 20.8435 76.5288 18.028 76.5288 14.8975L76.5864 0.652344L78.9126 1.81836ZM142.253 7.17188C146.532 7.17214 150.007 10.6471 150.007 14.8975V22.3936H147.595V22.2832C147.6 22.2735 147.604 22.2626 147.604 22.251V14.5166C147.604 14.4962 147.595 14.4777 147.582 14.4648C147.441 12.4854 146.169 10.7347 144.321 9.95801C142.31 9.12511 140.013 9.58482 138.491 11.1357C136.94 12.6579 136.509 14.9558 137.313 16.9375C138.146 18.9477 140.099 20.2402 142.253 20.2402C144.801 20.24 146.921 18.4712 147.46 16.0908V20.5938C144.961 22.8961 141.224 23.3107 138.29 21.5615C135.303 19.7521 133.867 16.1904 134.786 12.8301C135.733 9.49847 138.778 7.17188 142.253 7.17188ZM60.9536 14.8975C60.9823 17.827 63.3668 20.1826 66.2964 20.1826C69.2258 20.1825 71.6094 17.8269 71.6382 14.8975V7.83301H74.0219V14.8975C73.9645 19.1481 70.5182 22.537 66.2964 22.5371C62.0457 22.5371 58.5985 19.1481 58.5698 14.8975V7.83301H60.9536V14.8975ZM48.2553 7.05664C52.5347 7.05664 55.9818 10.5322 55.9819 14.8115V22.3936H53.5981V14.8115C53.598 11.8534 51.2135 9.46973 48.2553 9.46973C45.2973 9.46989 42.9136 11.8535 42.9135 14.8115V22.3936H40.5298V14.8115C40.5298 10.5323 43.9761 7.0568 48.2553 7.05664ZM131.955 1.81836V22.3936H129.571L129.628 0.680664L131.955 1.81836ZM160.417 7.05664C164.697 7.05689 168.143 10.5324 168.143 14.8115V22.3936H165.759V14.8115C165.759 11.8535 163.375 9.46997 160.417 9.46973C157.459 9.46973 155.075 11.8534 155.075 14.8115V22.3936H152.691V14.8115C152.691 10.5322 156.138 7.05664 160.417 7.05664ZM103.599 9.95801C101.617 9.12526 99.2911 9.58489 97.769 11.1357C96.247 12.6579 95.7877 14.9559 96.6206 16.9375C97.4536 18.9476 99.4062 20.2401 101.56 20.2402C104.518 20.2402 106.903 17.8557 106.903 14.8975C106.903 12.7436 105.609 10.7909 103.599 9.95801Z" fill="black"></path>
<path d="M35.114 7.22294C33.0493 7.22294 31.0047 7.62963 29.0971 8.41979C27.1894 9.20995 25.4561 10.3681 23.9961 11.8281C22.5361 13.2882 21.3779 15.0215 20.5878 16.9291C19.7976 18.8367 19.3909 20.8813 19.3909 22.9461L27.9185 22.9461C27.9185 22.0011 28.1046 21.0655 28.4662 20.1925C28.8278 19.3195 29.3578 18.5262 30.026 17.8581C30.6942 17.1899 31.4874 16.6599 32.3604 16.2983C33.2334 15.9366 34.1691 15.7505 35.114 15.7505V7.22294Z" fill="#3F83F8"></path>
<path d="M1.00011 22.9461C3.06491 22.9461 5.10948 22.5394 7.0171 21.7492C8.92472 20.9591 10.658 19.8009 12.1181 18.3409C13.5781 16.8809 14.7362 15.1476 15.5264 13.2399C16.3166 11.3323 16.7233 9.28774 16.7233 7.22295L8.19567 7.22295C8.19567 8.16788 8.00955 9.10356 7.64794 9.97657C7.28633 10.8496 6.75631 11.6428 6.08814 12.311C5.41997 12.9791 4.62674 13.5092 3.75374 13.8708C2.88073 14.2324 1.94505 14.4185 1.00011 14.4185L1.00011 22.9461Z" fill="#3F83F8"></path>
<g filter="url(#filter0_dddd_1_3190)">
<path d="M8.23028 7.22294L19.3909 22.9461H27.9544L16.7236 7.22294H8.23028Z" fill="#3F83F8"></path>
</g>
<defs>
<filter id="filter0_dddd_1_3190" x="0.687176" y="6.55456" width="27.9356" height="24.3166" filterUnits="userSpaceOnUse" color-interpolation-filters="sRGB">
<feFlood flood-opacity="0" result="BackgroundImageFix"></feFlood>
<feColorMatrix in="SourceAlpha" type="matrix" values="0 0 0 0 0 0 0 0 0 0 0 0 0 0 0 0 0 0 127 0" result="hardAlpha"></feColorMatrix>
<feOffset dx="-0.286447" dy="0.286447"></feOffset>
<feGaussianBlur stdDeviation="0.477412"></feGaussianBlur>
<feColorMatrix type="matrix" values="0 0 0 0 0 0 0 0 0 0 0 0 0 0 0 0 0 0 0.15 0"></feColorMatrix>
<feBlend mode="normal" in2="BackgroundImageFix" result="effect1_dropShadow_1_3190"></feBlend>
<feColorMatrix in="SourceAlpha" type="matrix" values="0 0 0 0 0 0 0 0 0 0 0 0 0 0 0 0 0 0 127 0" result="hardAlpha"></feColorMatrix>
<feOffset dx="-1.14579" dy="1.33675"></feOffset>
<feGaussianBlur stdDeviation="0.859341"></feGaussianBlur>
<feColorMatrix type="matrix" values="0 0 0 0 0 0 0 0 0 0 0 0 0 0 0 0 0 0 0.13 0"></feColorMatrix>
<feBlend mode="normal" in2="effect1_dropShadow_1_3190" result="effect2_dropShadow_1_3190"></feBlend>
<feColorMatrix in="SourceAlpha" type="matrix" values="0 0 0 0 0 0 0 0 0 0 0 0 0 0 0 0 0 0 127 0" result="hardAlpha"></feColorMatrix>
<feOffset dx="-2.6735" dy="2.86447"></feOffset>
<feGaussianBlur stdDeviation="1.19353"></feGaussianBlur>
<feColorMatrix type="matrix" values="0 0 0 0 0 0 0 0 0 0 0 0 0 0 0 0 0 0 0.08 0"></feColorMatrix>
<feBlend mode="normal" in2="effect2_dropShadow_1_3190" result="effect3_dropShadow_1_3190"></feBlend>
<feColorMatrix in="SourceAlpha" type="matrix" values="0 0 0 0 0 0 0 0 0 0 0 0 0 0 0 0 0 0 127 0" result="hardAlpha"></feColorMatrix>
<feOffset dx="-4.77412" dy="5.15604"></feOffset>
<feGaussianBlur stdDeviation="1.38449"></feGaussianBlur>
<feColorMatrix type="matrix" values="0 0 0 0 0 0 0 0 0 0 0 0 0 0 0 0 0 0 0.02 0"></feColorMatrix>
<feBlend mode="normal" in2="effect3_dropShadow_1_3190" result="effect4_dropShadow_1_3190"></feBlend>
<feBlend mode="normal" in="SourceGraphic" in2="effect4_dropShadow_1_3190" result="shape"></feBlend>
</filter>
</defs>
</svg>